<svg xmlns="http://www.w3.org/2000/svg" width="1000" height="404" viewBox="0 0 1000 404" version="1.1">
	<path d="M 126 119 L 126 192 199 192 L 272 192 272 119 L 272 46 199 46 L 126 46 126 119 M 361.411 79.413 C 347.814 82.530, 335.940 91.269, 330.706 102.013 C 329.236 105.031, 327.501 110.943, 326.852 115.152 C 322.545 143.078, 340.779 161.985, 372 161.965 C 380.400 161.960, 392.717 160.617, 393.739 159.595 C 394.461 158.872, 397.149 141.816, 396.624 141.290 C 396.392 141.058, 394.244 141.423, 391.851 142.102 C 389.458 142.780, 383 143.372, 377.500 143.417 C 366.715 143.506, 362.127 142.011, 357.298 136.834 C 348.124 126.999, 351.231 108.515, 363.387 100.610 C 369.681 96.516, 376.606 95.446, 388.353 96.749 C 393.913 97.366, 398.473 97.788, 398.486 97.686 C 398.500 97.584, 398.364 93.607, 398.185 88.848 C 397.887 80.959, 397.666 80.140, 395.679 79.563 C 390.726 78.124, 367.478 78.022, 361.411 79.413 M 784 81.875 C 784 84.006, 783.719 87.156, 783.375 88.875 L 782.750 92 794.875 92 L 807 92 807 85 L 807 78 795.500 78 L 784 78 784 81.875 M 428.836 100.855 C 413.479 105.940, 405.567 116.578, 405.673 132 C 405.758 144.521, 413.614 155.611, 425.280 159.680 C 433.082 162.400, 449.584 162.132, 457.131 159.162 C 464.565 156.236, 472.018 148.472, 474.465 141.106 C 476.856 133.906, 476.241 121.235, 473.214 115.372 C 470.412 109.943, 463.054 103.564, 457.195 101.483 C 449.892 98.890, 435.718 98.576, 428.836 100.855 M 519.637 100.465 C 517.513 101.222, 514.475 103.087, 512.887 104.608 L 510 107.374 510 103.687 L 510 100 499 100 L 488 100 487.994 104.750 C 487.984 111.412, 486.153 147.315, 485.468 154.250 L 484.901 160 496.822 160 L 508.744 160 509.474 144.868 C 509.875 136.546, 510.727 127.926, 511.368 125.714 C 513.601 118.003, 521.698 115.504, 524.123 121.778 C 525.120 124.360, 524.880 134.082, 523.357 152.750 L 522.765 160 534.742 160 L 546.720 160 547.249 143.750 C 547.539 134.813, 548.260 126.280, 548.849 124.790 C 551.307 118.571, 556.978 116.121, 560.579 119.722 C 562.135 121.278, 562.242 123.307, 561.682 140.722 L 561.062 160 572.393 160 L 583.724 160 584.334 153.750 C 584.670 150.313, 585.218 138.950, 585.551 128.500 C 586.117 110.755, 586.028 109.297, 584.197 106.420 C 578.468 97.419, 557.615 96.529, 549.556 104.941 L 546.789 107.829 543.812 104.439 C 542.175 102.574, 539.185 100.590, 537.168 100.030 C 532.106 98.624, 524.255 98.819, 519.637 100.465 M 617.803 100.337 C 602.173 104.753, 593.016 120.943, 596.107 138.696 C 598.238 150.928, 606.036 158.648, 618.669 161.032 C 626.113 162.437, 647.529 161.857, 650.690 160.166 C 652.145 159.387, 652.917 157.231, 653.821 151.411 C 654.482 147.163, 654.902 143.569, 654.757 143.423 C 654.611 143.277, 650.893 144.046, 646.496 145.131 C 630.155 149.162, 619 145.236, 619 135.453 L 619 133 639.368 133 L 659.737 133 660.302 128.786 C 660.953 123.931, 659.702 116.242, 657.611 112.251 C 655.491 108.202, 650.057 103.337, 645.500 101.408 C 640.211 99.168, 624.138 98.547, 617.803 100.337 M 700.500 100.637 C 698.850 101.520, 696.487 103.167, 695.250 104.296 L 693 106.349 693 103.174 L 693 100 681.649 100 L 670.299 100 669.644 124.750 C 669.284 138.363, 668.710 151.863, 668.368 154.750 L 667.746 160 679.766 160 L 691.786 160 692.182 144.750 C 692.607 128.361, 693.267 125.876, 698.486 121 C 700.719 118.913, 702.144 118.500, 707.114 118.500 L 713.066 118.500 712.783 109 L 712.500 99.500 708 99.265 C 705.355 99.127, 702.264 99.692, 700.500 100.637 M 740.500 99.976 C 728.330 103.105, 721.267 111.573, 718.949 125.814 C 717.848 132.579, 719.220 142.551, 722.003 148.005 C 724.779 153.448, 731.518 158.804, 737.936 160.670 C 743.991 162.430, 762.037 162.121, 765.635 160.195 C 767.126 159.397, 767.845 157.266, 768.773 150.902 C 769.435 146.360, 769.869 142.536, 769.737 142.404 C 769.605 142.272, 767.023 142.827, 763.999 143.638 C 757.555 145.366, 751.083 144.939, 747.431 142.547 C 741.883 138.912, 740.427 127.984, 744.711 122.136 C 748.184 117.396, 752.617 115.793, 760.500 116.428 C 764.350 116.739, 768.502 117.269, 769.727 117.607 C 771.935 118.216, 771.949 118.149, 771.338 109.861 C 770.999 105.262, 770.563 101.317, 770.370 101.093 C 768.842 99.321, 746.322 98.479, 740.500 99.976 M 839.836 100.855 C 824.479 105.940, 816.567 116.578, 816.673 132 C 816.758 144.521, 824.614 155.611, 836.280 159.680 C 844.082 162.400, 860.584 162.132, 868.131 159.162 C 875.565 156.236, 883.018 148.472, 885.465 141.106 C 887.856 133.906, 887.241 121.235, 884.214 115.372 C 881.412 109.943, 874.054 103.564, 868.195 101.483 C 860.892 98.890, 846.718 98.576, 839.836 100.855 M 782.972 105.250 C 782.929 113.165, 781.203 145.574, 780.416 153.250 L 779.724 160 792.203 160 L 804.683 160 805.325 136.750 C 805.678 123.963, 806.265 110.463, 806.628 106.750 L 807.289 100 795.145 100 L 783 100 782.972 105.250 M 625.241 114.325 C 622.604 115.790, 620.541 118.579, 619.749 121.750 C 619.196 123.964, 619.339 124, 628.594 124 L 638 124 638 120.955 C 638 114.787, 630.979 111.139, 625.241 114.325 M 436.216 117.505 C 427.191 121.427, 426.728 139.518, 435.546 143.723 C 442.558 147.067, 449.908 142.722, 452.001 133.996 C 455.071 121.198, 447.037 112.804, 436.216 117.505 M 847.216 117.505 C 838.191 121.427, 837.728 139.518, 846.546 143.723 C 853.558 147.067, 860.908 142.722, 863.001 133.996 C 866.071 121.198, 858.037 112.804, 847.216 117.505 M 126 283 L 126 356 199 356 L 272 356 272 283 L 272 210 199 210 L 126 210 126 283 M 292 283 L 292 356 365 356 L 438 356 438 283 L 438 210 365 210 L 292 210 292 283 M 766 272.427 L 766 324.906 769.454 326.545 C 771.354 327.447, 773.431 328.814, 774.070 329.584 C 775.045 330.759, 775.698 330.590, 778.145 328.531 C 781.785 325.469, 787.250 324.387, 792.287 325.731 C 795.091 326.479, 796.273 326.452, 796.587 325.632 C 796.825 325.009, 796.903 301.100, 796.760 272.500 L 796.500 220.500 781.250 220.224 L 766 219.948 766 272.427 M 774.394 232.416 C 773.602 234.478, 774.335 239.026, 775.500 239.281 C 776.050 239.401, 776.638 237.588, 776.807 235.250 C 777.106 231.120, 775.579 229.327, 774.394 232.416 M 780 235.500 C 780 237.975, 780.450 240, 781 240 C 781.550 240, 782 237.975, 782 235.500 C 782 233.025, 781.550 231, 781 231 C 780.450 231, 780 233.025, 780 235.500 M 785.394 232.416 C 784.528 234.673, 785.384 239.308, 786.750 239.756 C 787.628 240.044, 788 238.802, 788 235.583 C 788 231.200, 786.541 229.427, 785.394 232.416 M 507.411 243.413 C 493.814 246.530, 481.940 255.269, 476.706 266.013 C 475.236 269.031, 473.501 274.943, 472.852 279.152 C 468.545 307.078, 486.779 325.985, 518 325.965 C 526.400 325.960, 538.717 324.617, 539.739 323.595 C 540.461 322.872, 543.149 305.816, 542.624 305.290 C 542.392 305.058, 540.244 305.423, 537.851 306.102 C 535.458 306.780, 529 307.372, 523.500 307.417 C 512.715 307.506, 508.127 306.011, 503.298 300.834 C 494.124 290.999, 497.231 272.515, 509.387 264.610 C 515.681 260.516, 522.606 259.446, 534.353 260.749 C 539.913 261.366, 544.473 261.788, 544.486 261.686 C 544.500 261.584, 544.364 257.607, 544.185 252.848 C 543.887 244.959, 543.666 244.140, 541.679 243.563 C 536.726 242.124, 513.478 242.022, 507.411 243.413 M 557 245.875 C 557 248.006, 556.719 251.156, 556.375 252.875 L 555.750 256 567.875 256 L 580 256 580 249 L 580 242 568.500 242 L 557 242 557 245.875 M 774.639 242.694 C 773.352 243.982, 774.003 248, 775.500 248 C 776.424 248, 777 247.062, 777 245.559 C 777 243.050, 775.773 241.560, 774.639 242.694 M 780 245 C 780 246.650, 780.450 248, 781 248 C 781.550 248, 782 246.650, 782 245 C 782 243.350, 781.550 242, 781 242 C 780.450 242, 780 243.350, 780 245 M 785.362 243.500 C 784.646 245.364, 785.588 248, 786.969 248 C 787.536 248, 788 246.650, 788 245 C 788 241.860, 786.351 240.922, 785.362 243.500 M 612.500 249.098 C 608.100 250.138, 603.487 251.225, 602.250 251.514 C 600.226 251.985, 600 252.639, 600 258.019 L 600 264 595.139 264 L 590.279 264 589.648 269.250 C 588.369 279.898, 588.407 280, 593.588 280 L 598.175 280 597.433 292.250 C 596.287 311.140, 596.449 315.258, 598.469 318.678 C 601.699 324.146, 605.277 325.500, 616.500 325.500 C 631.621 325.500, 631.465 325.590, 633.263 315.762 C 634.094 311.218, 634.690 307.402, 634.586 307.282 C 634.483 307.163, 632.782 307.561, 630.806 308.168 C 621.884 310.906, 619.655 307.103, 620.643 290.830 L 621.301 280 628.150 280 L 635 280 635 272 L 635 264 628.500 264 L 622 264 622 255.500 C 622 250.825, 621.663 247.046, 621.250 247.103 C 620.837 247.159, 616.900 248.057, 612.500 249.098 M 774 253.500 C 774 255.056, 774.567 256, 775.500 256 C 776.433 256, 777 255.056, 777 253.500 C 777 251.944, 776.433 251, 775.500 251 C 774.567 251, 774 251.944, 774 253.500 M 780 253.500 C 780 254.875, 780.450 256, 781 256 C 781.550 256, 782 254.875, 782 253.500 C 782 252.125, 781.550 251, 781 251 C 780.450 251, 780 252.125, 780 253.500 M 785 253.500 C 785 255.056, 785.567 256, 786.500 256 C 787.433 256, 788 255.056, 788 253.500 C 788 251.944, 787.433 251, 786.500 251 C 785.567 251, 785 251.944, 785 253.500 M 774.184 261.531 C 774.358 262.923, 774.950 264.062, 775.500 264.062 C 776.050 264.062, 776.642 262.923, 776.816 261.531 C 777.042 259.727, 776.664 259, 775.500 259 C 774.336 259, 773.958 259.727, 774.184 261.531 M 780 262 C 780 263.650, 780.450 265, 781 265 C 781.550 265, 782 263.650, 782 262 C 782 260.350, 781.550 259, 781 259 C 780.450 259, 780 260.350, 780 262 M 785.362 260.500 C 784.646 262.364, 785.588 265, 786.969 265 C 787.536 265, 788 263.650, 788 262 C 788 258.860, 786.351 257.922, 785.362 260.500 M 863 264.249 C 856.696 267.620, 852.483 274.573, 852.549 281.495 C 852.623 289.156, 856.431 295.085, 863.499 298.543 L 869 301.235 869 316.240 C 869 329.464, 869.178 331.097, 870.500 330 C 871.746 328.966, 872 325.215, 872 307.878 L 872 287 869.200 287 C 865.230 287, 864 285.296, 864 279.800 C 864 273.866, 865.771 273.422, 866.193 279.250 C 866.468 283.053, 866.789 283.533, 869.250 283.816 C 871.901 284.121, 872 283.966, 872 279.483 C 872 276.208, 872.369 274.956, 873.250 275.250 C 874.118 275.539, 874.500 278.239, 874.500 284.083 C 874.500 292.394, 874.531 292.500, 877 292.500 C 879.320 292.500, 879.536 292.085, 880 286.731 C 880.625 279.519, 882.412 279.200, 882.759 286.238 C 883.072 292.592, 882.284 293.990, 877.879 294.891 L 874.500 295.582 874.578 310.792 C 874.620 319.161, 875.070 326.114, 875.578 326.251 C 876.097 326.391, 876.622 320.754, 876.778 313.360 L 877.057 300.219 880.017 298.993 C 887.079 296.068, 892.942 285.634, 891.439 278.666 C 889.327 268.877, 882.654 262.876, 873.160 262.229 C 868.606 261.918, 866.621 262.313, 863 264.249 M 555.972 269.250 C 555.929 277.165, 554.203 309.574, 553.416 317.250 L 552.724 324 565.203 324 L 577.683 324 578.325 300.750 C 578.678 287.962, 579.265 274.462, 579.628 270.750 L 580.289 264 568.145 264 L 556 264 555.972 269.250 M 639 264.718 C 639 265.148, 643.539 279.118, 649.088 295.763 L 659.175 326.026 656.565 330.479 C 653.055 336.469, 648.419 338.002, 640.489 335.795 C 637.470 334.955, 635 334.639, 635 335.093 C 635 335.547, 635.505 339.317, 636.123 343.471 C 637.461 352.467, 637.520 352.500, 652 352.500 C 660.603 352.500, 661.992 352.227, 666.708 349.614 C 669.573 348.026, 673.036 345.101, 674.403 343.114 C 675.770 341.126, 681.811 328.025, 687.827 314 C 693.842 299.975, 701.067 283.238, 703.882 276.806 C 706.697 270.375, 709 264.863, 709 264.556 C 709 264.250, 703.922 264, 697.716 264 L 686.431 264 684.587 268.750 C 683.572 271.363, 680.345 280.408, 677.416 288.852 C 672.974 301.656, 671.987 303.731, 671.475 301.352 C 671.137 299.783, 668.950 290.850, 666.614 281.500 L 662.368 264.500 650.684 264.218 C 644.258 264.063, 639 264.288, 639 264.718 M 799 296.567 L 799 328.133 801.668 331.631 C 803.135 333.555, 804.605 336.788, 804.935 338.815 L 805.534 342.500 811.356 342.500 L 817.178 342.500 817.465 337.940 C 817.820 332.299, 820.109 327.718, 824.017 324.830 L 827 322.624 827 293.812 L 827 265 813 265 L 799 265 799 296.567 M 774 270.500 C 774 272.056, 774.567 273, 775.500 273 C 776.433 273, 777 272.056, 777 270.500 C 777 268.944, 776.433 268, 775.500 268 C 774.567 268, 774 268.944, 774 270.500 M 780 270.500 C 780 271.875, 780.450 273, 781 273 C 781.550 273, 782 271.875, 782 270.500 C 782 269.125, 781.550 268, 781 268 C 780.450 268, 780 269.125, 780 270.500 M 785 270.500 C 785 272.056, 785.567 273, 786.500 273 C 787.433 273, 788 272.056, 788 270.500 C 788 268.944, 787.433 268, 786.500 268 C 785.567 268, 785 268.944, 785 270.500 M 805 273 C 805 275.089, 805.425 276.025, 806.250 275.750 C 806.938 275.521, 807.500 274.283, 807.500 273 C 807.500 271.717, 806.938 270.479, 806.250 270.250 C 805.425 269.975, 805 270.911, 805 273 M 810.810 270.524 C 810.522 270.811, 810.499 272.161, 810.760 273.524 C 811.106 275.334, 811.874 276, 813.617 276 C 815.598 276, 816 275.494, 816 273 C 816 270.524, 815.593 270, 813.667 270 C 812.383 270, 811.098 270.236, 810.810 270.524 M 819.667 270.667 C 818.620 271.714, 818.888 276, 820 276 C 820.550 276, 821 274.650, 821 273 C 821 269.893, 820.796 269.537, 819.667 270.667 M 774 278.500 C 774 280.056, 774.567 281, 775.500 281 C 776.433 281, 777 280.056, 777 278.500 C 777 276.944, 776.433 276, 775.500 276 C 774.567 276, 774 276.944, 774 278.500 M 780 278.500 C 780 279.875, 780.450 281, 781 281 C 781.550 281, 782 279.875, 782 278.500 C 782 277.125, 781.550 276, 781 276 C 780.450 276, 780 277.125, 780 278.500 M 785 278.500 C 785 280.056, 785.567 281, 786.500 281 C 787.433 281, 788 280.056, 788 278.500 C 788 276.944, 787.433 276, 786.500 276 C 785.567 276, 785 276.944, 785 278.500 M 805 281.500 C 805 283.056, 805.567 284, 806.500 284 C 807.433 284, 808 283.056, 808 281.500 C 808 279.944, 807.433 279, 806.500 279 C 805.567 279, 805 279.944, 805 281.500 M 811 281.500 C 811 283.500, 811.500 284, 813.500 284 C 815.500 284, 816 283.500, 816 281.500 C 816 279.500, 815.500 279, 813.500 279 C 811.500 279, 811 279.500, 811 281.500 M 819 281.500 C 819 282.875, 819.450 284, 820 284 C 820.550 284, 821 282.875, 821 281.500 C 821 280.125, 820.550 279, 820 279 C 819.450 279, 819 280.125, 819 281.500 M 729.453 282.262 C 729.187 282.955, 729.089 296.793, 729.235 313.012 L 729.500 342.500 737.250 342.792 L 745 343.084 745.004 338.792 C 745.008 334.296, 747.856 328.376, 750.506 327.359 C 751.355 327.034, 752 325.537, 752 323.893 C 752 321.474, 752.409 321, 754.500 321 C 756.056 321, 757 321.567, 757 322.500 C 757 323.500, 758 324, 760 324 L 763 324 763 302.500 L 763 281 746.469 281 C 734.085 281, 729.816 281.317, 729.453 282.262 M 842.500 282.412 C 836.821 284.936, 833 290.876, 833 297.179 C 833 301.357, 836.753 307.684, 840.666 310.102 C 843.678 311.964, 843.928 312.538, 844.204 318.224 C 844.387 322.003, 844.978 324.499, 845.750 324.754 C 846.704 325.069, 847 322.303, 847 313.083 C 847 301.929, 846.856 301, 845.122 301 C 842.363 301, 840.821 298.579, 841.182 294.815 C 841.591 290.556, 843.405 290.511, 843.813 294.750 C 844.224 299.013, 847 299.231, 847 295 C 847 293.350, 847.450 292, 848 292 C 848.550 292, 849 294.055, 849 296.566 C 849 300.955, 849.107 301.121, 851.741 300.816 C 855.468 300.386, 855.687 298.020, 852.578 291.780 C 851.160 288.935, 850 285.346, 850 283.804 C 850 281.551, 849.558 281.008, 847.750 281.039 C 846.513 281.061, 844.150 281.678, 842.500 282.412 M 774.362 285.500 C 773.593 287.503, 774.727 290.287, 775.993 289.504 C 777.318 288.685, 777.297 284, 775.969 284 C 775.401 284, 774.678 284.675, 774.362 285.500 M 780 287 C 780 288.650, 780.450 290, 781 290 C 781.550 290, 782 288.650, 782 287 C 782 285.350, 781.550 284, 781 284 C 780.450 284, 780 285.350, 780 287 M 785.362 285.500 C 784.593 287.503, 785.727 290.287, 786.993 289.504 C 788.318 288.685, 788.297 284, 786.969 284 C 786.401 284, 785.678 284.675, 785.362 285.500 M 735 289.500 C 735 291.611, 735.467 292, 738 292 C 740.533 292, 741 291.611, 741 289.500 C 741 287.389, 740.533 287, 738 287 C 735.467 287, 735 287.389, 735 289.500 M 744 289.861 C 744 292.374, 744.304 292.664, 746.500 292.245 C 748.334 291.894, 749 291.132, 749 289.383 C 749 287.508, 748.467 287, 746.500 287 C 744.416 287, 744 287.476, 744 289.861 M 752 289.500 C 752 291.500, 752.500 292, 754.500 292 C 756.500 292, 757 291.500, 757 289.500 C 757 287.500, 756.500 287, 754.500 287 C 752.500 287, 752 287.500, 752 289.500 M 805 289.500 C 805 291.056, 805.567 292, 806.500 292 C 807.433 292, 808 291.056, 808 289.500 C 808 287.944, 807.433 287, 806.500 287 C 805.567 287, 805 287.944, 805 289.500 M 810.760 289.476 C 810.171 292.559, 810.441 292.829, 813.524 292.240 C 815.334 291.894, 816 291.126, 816 289.383 C 816 285.901, 811.428 285.983, 810.760 289.476 M 819 289.500 C 819 290.875, 819.450 292, 820 292 C 820.550 292, 821 290.875, 821 289.500 C 821 288.125, 820.550 287, 820 287 C 819.450 287, 819 288.125, 819 289.500 M 774 295.500 C 774 297.056, 774.567 298, 775.500 298 C 776.433 298, 777 297.056, 777 295.500 C 777 293.944, 776.433 293, 775.500 293 C 774.567 293, 774 293.944, 774 295.500 M 780 295.500 C 780 296.875, 780.450 298, 781 298 C 781.550 298, 782 296.875, 782 295.500 C 782 294.125, 781.550 293, 781 293 C 780.450 293, 780 294.125, 780 295.500 M 785 295.500 C 785 297.056, 785.567 298, 786.500 298 C 787.433 298, 788 297.056, 788 295.500 C 788 293.944, 787.433 293, 786.500 293 C 785.567 293, 785 293.944, 785 295.500 M 735.300 296.660 C 734.384 299.047, 735.878 301.156, 738.246 300.820 C 741.518 300.355, 741.442 295.735, 738.157 295.493 C 736.869 295.398, 735.583 295.923, 735.300 296.660 M 744 298.006 C 744 300.554, 744.383 301, 746.566 301 C 748.757 301, 749.086 300.611, 748.816 298.344 C 748.594 296.480, 747.829 295.587, 746.250 295.350 C 744.343 295.064, 744 295.468, 744 298.006 M 752.450 295.883 C 752.203 296.131, 752 297.383, 752 298.667 C 752 300.489, 752.548 301, 754.500 301 C 756.599 301, 757 300.529, 757 298.062 C 757 295.717, 756.587 295.155, 754.950 295.279 C 753.823 295.364, 752.698 295.636, 752.450 295.883 M 805.683 295.650 C 805.308 296.026, 805 297.421, 805 298.750 C 805 301.518, 807.300 301.365, 807.844 298.561 C 808.227 296.585, 806.745 294.588, 805.683 295.650 M 811 298.006 C 811 300.554, 811.383 301, 813.566 301 C 815.757 301, 816.086 300.611, 815.816 298.344 C 815.594 296.480, 814.829 295.587, 813.250 295.350 C 811.343 295.064, 811 295.468, 811 298.006 M 819 298 C 819 299.650, 819.450 301, 820 301 C 820.550 301, 821 299.650, 821 298 C 821 296.350, 820.550 295, 820 295 C 819.450 295, 819 296.350, 819 298 M 857 300.465 C 857 302.198, 853.975 304, 851.066 304 C 849.108 304, 849 304.555, 849 314.573 C 849 324.104, 849.173 325.114, 850.750 324.813 C 852.166 324.543, 852.555 323.236, 852.791 317.966 C 853.066 311.780, 853.234 311.384, 856.130 310.103 C 858.713 308.959, 862.984 303.863, 862.996 301.911 C 863 301.368, 858.491 299, 857.453 299 C 857.204 299, 857 299.659, 857 300.465 M 774 303.500 C 774 305.056, 774.567 306, 775.500 306 C 776.433 306, 777 305.056, 777 303.500 C 777 301.944, 776.433 301, 775.500 301 C 774.567 301, 774 301.944, 774 303.500 M 780 303.500 C 780 304.875, 780.450 306, 781 306 C 781.550 306, 782 304.875, 782 303.500 C 782 302.125, 781.550 301, 781 301 C 780.450 301, 780 302.125, 780 303.500 M 785 303.500 C 785 305.056, 785.567 306, 786.500 306 C 787.433 306, 788 305.056, 788 303.500 C 788 301.944, 787.433 301, 786.500 301 C 785.567 301, 785 301.944, 785 303.500 M 735 306.500 C 735 308.611, 735.467 309, 738 309 C 740.533 309, 741 308.611, 741 306.500 C 741 304.389, 740.533 304, 738 304 C 735.467 304, 735 304.389, 735 306.500 M 744 306.500 C 744 308.500, 744.500 309, 746.500 309 C 748.500 309, 749 308.500, 749 306.500 C 749 304.500, 748.500 304, 746.500 304 C 744.500 304, 744 304.500, 744 306.500 M 752 306.500 C 752 308.500, 752.500 309, 754.500 309 C 756.500 309, 757 308.500, 757 306.500 C 757 304.500, 756.500 304, 754.500 304 C 752.500 304, 752 304.500, 752 306.500 M 805 305 C 805 305.550, 805.675 306, 806.500 306 C 807.325 306, 808 305.550, 808 305 C 808 304.450, 807.325 304, 806.500 304 C 805.675 304, 805 304.450, 805 305 M 811 305 C 811 305.550, 812.125 306, 813.500 306 C 814.875 306, 816 305.550, 816 305 C 816 304.450, 814.875 304, 813.500 304 C 812.125 304, 811 304.450, 811 305 M 819 305 C 819 305.550, 819.450 306, 820 306 C 820.550 306, 821 305.550, 821 305 C 821 304.450, 820.550 304, 820 304 C 819.450 304, 819 304.450, 819 305 M 774.639 309.694 C 773.352 310.982, 774.003 315, 775.500 315 C 776.424 315, 777 314.062, 777 312.559 C 777 310.050, 775.773 308.560, 774.639 309.694 M 780 312 C 780 313.650, 780.450 315, 781 315 C 781.550 315, 782 313.650, 782 312 C 782 310.350, 781.550 309, 781 309 C 780.450 309, 780 310.350, 780 312 M 785.386 310.437 C 784.650 312.354, 785.568 315, 786.969 315 C 788.297 315, 788.318 310.315, 786.993 309.496 C 786.439 309.153, 785.716 309.577, 785.386 310.437 M 812.750 309.743 C 802.529 310.193, 802.729 312, 813 312 C 819.444 312, 821 311.708, 821 310.500 C 821 309.675, 820.888 309.091, 820.750 309.201 C 820.612 309.312, 817.013 309.556, 812.750 309.743 M 735 314.500 C 735 316.611, 735.467 317, 738 317 C 740.533 317, 741 316.611, 741 314.500 C 741 312.389, 740.533 312, 738 312 C 735.467 312, 735 312.389, 735 314.500 M 744 314.500 C 744 316.500, 744.500 317, 746.500 317 C 748.500 317, 749 316.500, 749 314.500 C 749 312.500, 748.500 312, 746.500 312 C 744.500 312, 744 312.500, 744 314.500 M 752 314.500 C 752 316.500, 752.500 317, 754.500 317 C 756.500 317, 757 316.500, 757 314.500 C 757 312.500, 756.500 312, 754.500 312 C 752.500 312, 752 312.500, 752 314.500 M 805 316 C 805 316.583, 808.333 317, 813 317 C 817.667 317, 821 316.583, 821 316 C 821 315.417, 817.667 315, 813 315 C 808.333 315, 805 315.417, 805 316 M 735 323.500 C 735 325.611, 735.467 326, 738 326 C 740.533 326, 741 325.611, 741 323.500 C 741 321.389, 740.533 321, 738 321 C 735.467 321, 735 321.389, 735 323.500 M 744 323.500 C 744 325.500, 744.500 326, 746.500 326 C 748.500 326, 749 325.500, 749 323.500 C 749 321.500, 748.500 321, 746.500 321 C 744.500 321, 744 321.500, 744 323.500 M 805 322 C 805 322.583, 808.333 323, 813 323 C 817.667 323, 821 322.583, 821 322 C 821 321.417, 817.667 321, 813 321 C 808.333 321, 805 321.417, 805 322 M 827.206 326.143 C 823.220 328.695, 820 334.646, 820 339.460 L 820 343 858.441 343 C 879.584 343, 897.067 342.663, 897.294 342.250 C 898.230 340.547, 895.796 335.038, 892.825 332.133 C 887.275 326.707, 878.118 326.728, 872.665 332.181 L 869.632 335.214 867.712 332.579 C 863.841 327.265, 855.617 325.386, 849.711 328.467 C 847.161 329.797, 846.751 329.751, 844.921 327.921 C 840.533 323.533, 832.535 322.731, 827.206 326.143 M 754.299 328.624 C 750.779 330.360, 748.666 333.080, 747.659 337.171 C 746.196 343.116, 745.636 343, 775.715 343 L 803.217 343 802.530 340.250 C 800.019 330.186, 790.384 325.351, 781.367 329.630 C 779.477 330.527, 777.286 332.181, 776.498 333.307 C 775.077 335.335, 775.047 335.330, 772.944 332.656 C 768.590 327.121, 760.775 325.431, 754.299 328.624" stroke="none" fill="black" fill-rule="evenodd"/>
</svg>